<svg xmlns="http://www.w3.org/2000/svg" viewBox="0 0 200 200" fill="none" stroke="currentColor" stroke-width="3.5" stroke-linecap="round" stroke-linejoin="round">
  <path d="M100 22c30 0 52 24 52 60 0 24-6 44-20 60-9 10-20 16-32 16s-23-6-32-16c-14-16-20-36-20-60 0-36 22-60 52-60Z"/>
  <path d="M62 70c10-8 24-9 33-2"/>
  <path d="M105 68c9-7 23-6 33 2"/>
  <circle cx="78" cy="88" r="4" fill="currentColor" stroke="none"/>
  <circle cx="122" cy="88" r="4" fill="currentColor" stroke="none"/>
  <path d="M100 92v26c0 6-5 9-10 10"/>
  <path d="M84 140c10 7 22 7 32 0"/>
</svg>
